HIERARCHY
ROOT Hips
{
	OFFSET 0.00000 0.00000 0.00000
	CHANNELS 6 Xposition Yposition Zposition Zrotation Yrotation Xrotation 
	JOINT LHipJoint
	{
		OFFSET 0 0 0
		CHANNELS 3 Zrotation Yrotation Xrotation
		JOINT LeftHip
		{
			OFFSET 1.62964 -1.40469 0.78906
			CHANNELS 3 Zrotation Yrotation Xrotation
			JOINT LeftKnee
			{
				OFFSET 2.29640 -6.30932 0.00000
				CHANNELS 3 Zrotation Yrotation Xrotation
				JOINT LeftAnkle
				{
					OFFSET 2.29451 -6.30412 0.00000
					CHANNELS 3 Zrotation Yrotation Xrotation
					JOINT LeftToe
					{
						OFFSET 0.03611 -0.09921 1.56387
						CHANNELS 3 Zrotation Yrotation Xrotation
						End Site
						{
							OFFSET 0.00000 -0.00000 0.80291
						}
					}
				}
			}
		}
	}
	JOINT RHipJoint
	{
		OFFSET 0 0 0
		CHANNELS 3 Zrotation Yrotation Xrotation
		JOINT RightHip
		{
			OFFSET -1.73712 -1.40469 0.78906
			CHANNELS 3 Zrotation Yrotation Xrotation
			JOINT RightKnee
			{
				OFFSET -2.28137 -6.26801 0.00000
				CHANNELS 3 Zrotation Yrotation Xrotation
				JOINT RightAnkle
				{
					OFFSET -2.28681 -6.28298 0.00000
					CHANNELS 3 Zrotation Yrotation Xrotation
					JOINT RightToe
					{
						OFFSET -0.15927 -0.43759 1.61103
						CHANNELS 3 Zrotation Yrotation Xrotation
						End Site
						{
							OFFSET -0.00000 -0.00000 0.84630
						}
					}
				}
			}
		}
	}
	JOINT lowerback
	{
		OFFSET 0 0 0
		CHANNELS 3 Zrotation Yrotation Xrotation
		JOINT Chest
		{
			OFFSET -0.04227 2.04338 -0.00225
			CHANNELS 3 Zrotation Yrotation Xrotation
			JOINT Chest2
			{
				OFFSET -0.02148 2.04482 -0.04273
				CHANNELS 3 Zrotation Yrotation Xrotation
				JOINT lowerneck
				{
					OFFSET 0 0 0
					CHANNELS 3 Zrotation Yrotation Xrotation
					JOINT Neck
					{
						OFFSET 0.09180 1.44629 0.19359
						CHANNELS 3 Zrotation Yrotation Xrotation
						JOINT Head
						{
							OFFSET 0.00887 1.40645 0.14750
							CHANNELS 3 Zrotation Yrotation Xrotation
							End Site
							{
								OFFSET -0.00669 1.50671 0.03707
							}
						}
					}
				}
				JOINT LeftCollar
				{
					OFFSET 0 0 0
					CHANNELS 3 Zrotation Yrotation Xrotation
					JOINT LeftShoulder
					{
						OFFSET 2.17674 1.86763 -0.06520
CHANNELS 3 Zrotation Xrotation Yrotation
						JOINT LeftElbow
						{
OFFSET 0 -4.657760 0.000000
CHANNELS 3 Zrotation Xrotation Yrotation
							JOINT LeftWrist
							{
OFFSET 0 -3.555390 0.000000
CHANNELS 3 Zrotation Xrotation Yrotation
								JOINT lhand
								{
									OFFSET 0 0 0
CHANNELS 3 Zrotation Xrotation Yrotation
									JOINT LFingers
									{
OFFSET 0 -0.707260 0.000000
CHANNELS 3 Zrotation Xrotation Yrotation
										End Site
										{
OFFSET 0 -0.570220 0.000000
										}
									}
								}
								JOINT LThumb
								{
OFFSET 0 0.000000 0.000000
CHANNELS 3 Zrotation Xrotation Yrotation
									End Site
									{
OFFSET 0 -0.578920 0.578920
									}
								}
							}
						}
					}
				}
				JOINT RightCollar
				{
					OFFSET 0 0 0
					CHANNELS 3 Zrotation Yrotation Xrotation
					JOINT RightShoulder
					{
						OFFSET -2.80694 1.55459 -0.32496
CHANNELS 3 Zrotation Xrotation Yrotation
						JOINT RightElbow
						{
OFFSET 0 -4.719250 -0.000000
CHANNELS 3 Zrotation Xrotation Yrotation
							JOINT RightWrist
							{
OFFSET 0 -3.569900 0.000000
CHANNELS 3 Zrotation Xrotation Yrotation
								JOINT rhand
								{
									OFFSET 0 0 0
CHANNELS 3 Zrotation Xrotation Yrotation
									JOINT RFingers
									{
OFFSET 0 -0.507760 0.000000
CHANNELS 3 Zrotation Xrotation Yrotation
										End Site
										{
OFFSET 0 -0.409370 0.000000
										}
									}
								}
								JOINT RThumb
								{
OFFSET 0 0.000000 0.000000
CHANNELS 3 Zrotation Xrotation Yrotation
									End Site
									{
OFFSET 0 -0.415620 0.415620
									}
								}
							}
						}
					}
				}
			}
		}
	}
}
MOTION
Frames: 4
Frame Time: 0.008333333333333333
3.328363 17.177840 10.100864 170.135249 -6.174921 -139.702528 0.000000 0.000000 0.000000 -11.990747 -19.303615 -26.654985 10.607868 17.735347 61.498235 0.049066 -0.928435 -3.950673 1.369005 -7.397261 -20.901355 0.000000 0.000000 0.000000 -2.923788 18.062479 -50.170262 -1.213425 -6.987385 19.678190 -0.772628 -2.706152 -17.797305 -0.894866 6.029115 -16.868969 -1.269510 -5.697148 -19.147470 0.862689 -7.491679 0.218950 -0.485988 -3.671026 11.247822 -0.512410 -0.849391 -1.040433 0.338680 -0.390847 15.018164 0.203545 0.092943 4.881373 0.000000 0.000000 0.000000 18.875726 -5.460698 -34.414442 34.591875 -44.518479 14.526421 22.709232 -11.031626 13.178212 0.000000 0.000000 0.000000 -7.125000 0.000000 0.000000 -3.181674 15.752194 -2.201793 0.000000 0.000000 0.000000 -1.372828 10.577652 16.887022 -23.352365 -34.471688 -7.336859 -5.305818 -3.215363 52.656205 0.000000 0.000000 0.000000 7.125000 0.000000 0.000000 68.835895 73.126841 -51.642703
3.341710 17.178156 10.082107 170.260474 -6.081655 -139.922144 0.000000 0.000000 0.000000 -12.103181 -19.365254 -27.582365 11.028949 17.947761 62.873848 0.060294 -1.056379 -4.382654 1.271509 -7.141453 -20.137425 0.000000 0.000000 0.000000 -2.575910 18.160291 -49.759942 -1.182560 -6.901389 19.423520 -0.767148 -2.611065 -17.690149 -0.905208 6.062975 -16.967375 -1.283483 -5.631677 -19.045385 0.855880 -7.398318 0.281860 -0.452037 -3.626263 11.260250 -0.428681 -0.866298 -0.942196 0.291312 -0.402025 14.886748 0.182063 0.092861 5.036593 0.000000 0.000000 0.000000 18.771665 -5.273276 -34.842948 34.631489 -44.547163 14.554219 22.694014 -10.847942 13.089649 0.000000 0.000000 0.000000 -7.125000 0.000000 0.000000 -3.187850 15.848718 -2.199282 0.000000 0.000000 0.000000 -1.424771 10.486388 17.004936 -23.519888 -34.652305 -7.431803 -4.376733 -3.972389 52.758001 0.000000 0.000000 0.000000 7.125000 0.000000 0.000000 69.631736 72.821719 -52.019020
3.355116 17.179193 10.064312 170.400124 -5.950225 -140.149573 0.000000 0.000000 0.000000 -12.235569 -19.409224 -28.531742 11.440716 18.144068 64.204747 0.072424 -1.221166 -4.803757 1.470849 -7.663822 -21.697509 0.000000 0.000000 0.000000 -2.254716 18.311352 -49.414170 -1.166600 -6.856382 19.290733 -0.764914 -2.498308 -17.608115 -0.913746 6.090825 -17.048292 -1.266805 -5.531529 -18.996308 0.802734 -7.260664 0.366767 -0.479329 -3.556438 11.315950 -0.258468 -0.962297 -0.964460 0.197787 -0.512308 15.383979 0.106971 0.050168 4.772855 0.000000 0.000000 0.000000 18.754508 -5.093727 -35.270914 34.586482 -44.514604 14.522698 22.854890 -10.895104 13.538682 0.000000 0.000000 0.000000 -7.125000 0.000000 0.000000 -3.100150 15.350129 -2.172071 0.000000 0.000000 0.000000 -1.363485 10.340913 16.952827 -23.677014 -34.820842 -7.521338 -2.748022 -5.101315 53.182536 0.000000 0.000000 0.000000 7.125000 0.000000 0.000000 71.773160 72.365265 -53.453099
3.367412 17.181817 10.049609 170.532636 -5.779621 -140.415858 0.000000 0.000000 0.000000 -12.425448 -19.473970 -29.481118 11.853909 18.326815 65.523434 0.080985 -1.150117 -5.092589 1.829579 -8.489032 -24.217187 0.000000 0.000000 0.000000 -1.931857 18.435768 -49.077993 -1.155715 -6.825411 19.199261 -0.762759 -2.322587 -17.496820 -0.910073 6.079026 -17.013909 -1.265828 -5.422023 -18.947945 0.728811 -7.103819 0.484186 -0.517008 -3.476701 11.407969 -0.207918 -1.095646 -1.066420 0.206478 -0.682382 15.591294 0.094050 -0.024165 4.851371 0.000000 0.000000 0.000000 18.738699 -4.976348 -35.714660 34.505315 -44.455640 14.465801 22.925921 -10.676535 13.439601 0.000000 0.000000 0.000000 -7.125000 0.000000 0.000000 -3.046153 15.448661 -2.127731 0.000000 0.000000 0.000000 -1.264056 10.149921 16.934658 -23.808526 -34.961069 -7.596599 -3.234369 -4.839339 53.539190 0.000000 0.000000 0.000000 7.125000 0.000000 0.000000 72.631450 72.638677 -54.573156
